%TF.GenerationSoftware,KiCad,Pcbnew,7.0.9*%
%TF.CreationDate,2023-12-24T18:40:11+00:00*%
%TF.ProjectId,GPIO2HUB75,4750494f-3248-4554-9237-352e6b696361,rev?*%
%TF.SameCoordinates,Original*%
%TF.FileFunction,Copper,L1,Top*%
%TF.FilePolarity,Positive*%
%FSLAX46Y46*%
G04 Gerber Fmt 4.6, Leading zero omitted, Abs format (unit mm)*
G04 Created by KiCad (PCBNEW 7.0.9) date 2023-12-24 18:40:11*
%MOMM*%
%LPD*%
G01*
G04 APERTURE LIST*
G04 Aperture macros list*
%AMRoundRect*
0 Rectangle with rounded corners*
0 $1 Rounding radius*
0 $2 $3 $4 $5 $6 $7 $8 $9 X,Y pos of 4 corners*
0 Add a 4 corners polygon primitive as box body*
4,1,4,$2,$3,$4,$5,$6,$7,$8,$9,$2,$3,0*
0 Add four circle primitives for the rounded corners*
1,1,$1+$1,$2,$3*
1,1,$1+$1,$4,$5*
1,1,$1+$1,$6,$7*
1,1,$1+$1,$8,$9*
0 Add four rect primitives between the rounded corners*
20,1,$1+$1,$2,$3,$4,$5,0*
20,1,$1+$1,$4,$5,$6,$7,0*
20,1,$1+$1,$6,$7,$8,$9,0*
20,1,$1+$1,$8,$9,$2,$3,0*%
G04 Aperture macros list end*
%TA.AperFunction,ComponentPad*%
%ADD10RoundRect,0.250000X0.600000X0.600000X-0.600000X0.600000X-0.600000X-0.600000X0.600000X-0.600000X0*%
%TD*%
%TA.AperFunction,ComponentPad*%
%ADD11C,1.700000*%
%TD*%
%TA.AperFunction,ComponentPad*%
%ADD12O,1.700000X1.700000*%
%TD*%
%TA.AperFunction,ComponentPad*%
%ADD13R,1.700000X1.700000*%
%TD*%
%TA.AperFunction,Conductor*%
%ADD14C,0.250000*%
%TD*%
G04 APERTURE END LIST*
D10*
%TO.P,J3,1,Pin_1*%
%TO.N,Net-(J2-Pin_23)*%
X107950000Y-81280000D03*
D11*
%TO.P,J3,2,Pin_2*%
%TO.N,Net-(J2-Pin_24)*%
X105410000Y-81280000D03*
%TO.P,J3,3,Pin_3*%
%TO.N,Net-(J2-Pin_27)*%
X107950000Y-83820000D03*
%TO.P,J3,4,Pin_4*%
%TO.N,Net-(J2-Pin_25)*%
X105410000Y-83820000D03*
%TO.P,J3,5,Pin_5*%
%TO.N,Net-(J2-Pin_29)*%
X107950000Y-86360000D03*
%TO.P,J3,6,Pin_6*%
%TO.N,Net-(J2-Pin_26)*%
X105410000Y-86360000D03*
%TO.P,J3,7,Pin_7*%
%TO.N,Net-(J2-Pin_31)*%
X107950000Y-88900000D03*
%TO.P,J3,8,Pin_8*%
%TO.N,Net-(J2-Pin_28)*%
X105410000Y-88900000D03*
%TO.P,J3,9,Pin_9*%
%TO.N,Net-(J2-Pin_33)*%
X107950000Y-91440000D03*
%TO.P,J3,10,Pin_10*%
%TO.N,Net-(J2-Pin_32)*%
X105410000Y-91440000D03*
%TO.P,J3,11,Pin_11*%
%TO.N,Net-(J2-Pin_35)*%
X107950000Y-93980000D03*
%TO.P,J3,12,Pin_12*%
%TO.N,Net-(J2-Pin_36)*%
X105410000Y-93980000D03*
%TO.P,J3,13,Pin_13*%
%TO.N,Net-(J2-Pin_37)*%
X107950000Y-96520000D03*
%TO.P,J3,14,Pin_14*%
%TO.N,Net-(J2-Pin_38)*%
X105410000Y-96520000D03*
%TO.P,J3,15,Pin_15*%
%TO.N,Net-(J2-Pin_40)*%
X107950000Y-99060000D03*
%TO.P,J3,16,Pin_16*%
%TO.N,Net-(J2-Pin_39)*%
X105410000Y-99060000D03*
%TD*%
D12*
%TO.P,J2,40,Pin_40*%
%TO.N,Net-(J2-Pin_40)*%
X124460000Y-101600000D03*
%TO.P,J2,39,Pin_39*%
%TO.N,Net-(J2-Pin_39)*%
X121920000Y-101600000D03*
%TO.P,J2,38,Pin_38*%
%TO.N,Net-(J2-Pin_38)*%
X124460000Y-99060000D03*
%TO.P,J2,37,Pin_37*%
%TO.N,Net-(J2-Pin_37)*%
X121920000Y-99060000D03*
%TO.P,J2,36,Pin_36*%
%TO.N,Net-(J2-Pin_36)*%
X124460000Y-96520000D03*
%TO.P,J2,35,Pin_35*%
%TO.N,Net-(J2-Pin_35)*%
X121920000Y-96520000D03*
%TO.P,J2,34,Pin_34*%
%TO.N,unconnected-(J2-Pin_34-Pad34)*%
X124460000Y-93980000D03*
%TO.P,J2,33,Pin_33*%
%TO.N,Net-(J2-Pin_33)*%
X121920000Y-93980000D03*
%TO.P,J2,32,Pin_32*%
%TO.N,Net-(J2-Pin_32)*%
X124460000Y-91440000D03*
%TO.P,J2,31,Pin_31*%
%TO.N,Net-(J2-Pin_31)*%
X121920000Y-91440000D03*
%TO.P,J2,30,Pin_30*%
%TO.N,Net-(J1-Pin_19)*%
X124460000Y-88900000D03*
%TO.P,J2,29,Pin_29*%
%TO.N,Net-(J2-Pin_29)*%
X121920000Y-88900000D03*
%TO.P,J2,28,Pin_28*%
%TO.N,Net-(J2-Pin_28)*%
X124460000Y-86360000D03*
%TO.P,J2,27,Pin_27*%
%TO.N,Net-(J2-Pin_27)*%
X121920000Y-86360000D03*
%TO.P,J2,26,Pin_26*%
%TO.N,Net-(J2-Pin_26)*%
X124460000Y-83820000D03*
%TO.P,J2,25,Pin_25*%
%TO.N,Net-(J2-Pin_25)*%
X121920000Y-83820000D03*
%TO.P,J2,24,Pin_24*%
%TO.N,Net-(J2-Pin_24)*%
X124460000Y-81280000D03*
%TO.P,J2,23,Pin_23*%
%TO.N,Net-(J2-Pin_23)*%
X121920000Y-81280000D03*
%TO.P,J2,22,Pin_22*%
%TO.N,Net-(J1-Pin_20)*%
X124460000Y-78740000D03*
%TO.P,J2,21,Pin_21*%
%TO.N,Net-(J1-Pin_17)*%
X121920000Y-78740000D03*
%TO.P,J2,20,Pin_20*%
%TO.N,Net-(J1-Pin_18)*%
X124460000Y-76200000D03*
%TO.P,J2,19,Pin_19*%
%TO.N,Net-(J1-Pin_15)*%
X121920000Y-76200000D03*
%TO.P,J2,18,Pin_18*%
%TO.N,Net-(J1-Pin_16)*%
X124460000Y-73660000D03*
%TO.P,J2,17,Pin_17*%
%TO.N,unconnected-(J2-Pin_17-Pad17)*%
X121920000Y-73660000D03*
%TO.P,J2,16,Pin_16*%
%TO.N,Net-(J1-Pin_14)*%
X124460000Y-71120000D03*
%TO.P,J2,15,Pin_15*%
%TO.N,Net-(J1-Pin_13)*%
X121920000Y-71120000D03*
%TO.P,J2,14,Pin_14*%
%TO.N,Net-(J1-Pin_12)*%
X124460000Y-68580000D03*
%TO.P,J2,13,Pin_13*%
%TO.N,Net-(J1-Pin_11)*%
X121920000Y-68580000D03*
%TO.P,J2,12,Pin_12*%
%TO.N,Net-(J1-Pin_10)*%
X124460000Y-66040000D03*
%TO.P,J2,11,Pin_11*%
%TO.N,Net-(J1-Pin_9)*%
X121920000Y-66040000D03*
%TO.P,J2,10,Pin_10*%
%TO.N,Net-(J1-Pin_8)*%
X124460000Y-63500000D03*
%TO.P,J2,9,Pin_9*%
%TO.N,unconnected-(J2-Pin_9-Pad9)*%
X121920000Y-63500000D03*
%TO.P,J2,8,Pin_8*%
%TO.N,Net-(J1-Pin_7)*%
X124460000Y-60960000D03*
%TO.P,J2,7,Pin_7*%
%TO.N,Net-(J1-Pin_4)*%
X121920000Y-60960000D03*
%TO.P,J2,6,Pin_6*%
%TO.N,Net-(J1-Pin_3)*%
X124460000Y-58420000D03*
%TO.P,J2,5,Pin_5*%
%TO.N,Net-(J1-Pin_5)*%
X121920000Y-58420000D03*
%TO.P,J2,4,Pin_4*%
%TO.N,unconnected-(J2-Pin_4-Pad4)*%
X124460000Y-55880000D03*
%TO.P,J2,3,Pin_3*%
%TO.N,Net-(J1-Pin_6)*%
X121920000Y-55880000D03*
%TO.P,J2,2,Pin_2*%
%TO.N,Net-(J1-Pin_1)*%
X124460000Y-53340000D03*
D13*
%TO.P,J2,1,Pin_1*%
%TO.N,Net-(J1-Pin_2)*%
X121920000Y-53340000D03*
%TD*%
%TO.P,J1,1,Pin_1*%
%TO.N,Net-(J1-Pin_1)*%
X107315000Y-50800000D03*
D12*
%TO.P,J1,2,Pin_2*%
%TO.N,Net-(J1-Pin_2)*%
X104775000Y-50800000D03*
%TO.P,J1,3,Pin_3*%
%TO.N,Net-(J1-Pin_3)*%
X107315000Y-53340000D03*
%TO.P,J1,4,Pin_4*%
%TO.N,Net-(J1-Pin_4)*%
X104775000Y-53340000D03*
%TO.P,J1,5,Pin_5*%
%TO.N,Net-(J1-Pin_5)*%
X107315000Y-55880000D03*
%TO.P,J1,6,Pin_6*%
%TO.N,Net-(J1-Pin_6)*%
X104775000Y-55880000D03*
%TO.P,J1,7,Pin_7*%
%TO.N,Net-(J1-Pin_7)*%
X107315000Y-58420000D03*
%TO.P,J1,8,Pin_8*%
%TO.N,Net-(J1-Pin_8)*%
X104775000Y-58420000D03*
%TO.P,J1,9,Pin_9*%
%TO.N,Net-(J1-Pin_9)*%
X107315000Y-60960000D03*
%TO.P,J1,10,Pin_10*%
%TO.N,Net-(J1-Pin_10)*%
X104775000Y-60960000D03*
%TO.P,J1,11,Pin_11*%
%TO.N,Net-(J1-Pin_11)*%
X107315000Y-63500000D03*
%TO.P,J1,12,Pin_12*%
%TO.N,Net-(J1-Pin_12)*%
X104775000Y-63500000D03*
%TO.P,J1,13,Pin_13*%
%TO.N,Net-(J1-Pin_13)*%
X107315000Y-66040000D03*
%TO.P,J1,14,Pin_14*%
%TO.N,Net-(J1-Pin_14)*%
X104775000Y-66040000D03*
%TO.P,J1,15,Pin_15*%
%TO.N,Net-(J1-Pin_15)*%
X107315000Y-68580000D03*
%TO.P,J1,16,Pin_16*%
%TO.N,Net-(J1-Pin_16)*%
X104775000Y-68580000D03*
%TO.P,J1,17,Pin_17*%
%TO.N,Net-(J1-Pin_17)*%
X107315000Y-71120000D03*
%TO.P,J1,18,Pin_18*%
%TO.N,Net-(J1-Pin_18)*%
X104775000Y-71120000D03*
%TO.P,J1,19,Pin_19*%
%TO.N,Net-(J1-Pin_19)*%
X107315000Y-73660000D03*
%TO.P,J1,20,Pin_20*%
%TO.N,Net-(J1-Pin_20)*%
X104775000Y-73660000D03*
%TD*%
D14*
%TO.N,Net-(J2-Pin_40)*%
X109313100Y-100423100D02*
X107950000Y-99060000D01*
X122474100Y-100423100D02*
X109313100Y-100423100D01*
X123283100Y-101232100D02*
X122474100Y-100423100D01*
X123283100Y-101600000D02*
X123283100Y-101232100D01*
X124460000Y-101600000D02*
X123283100Y-101600000D01*
%TO.N,Net-(J2-Pin_37)*%
X121920000Y-99060000D02*
X120743100Y-99060000D01*
X110490000Y-99060000D02*
X120743100Y-99060000D01*
X107950000Y-96520000D02*
X110490000Y-99060000D01*
%TO.N,Net-(J2-Pin_36)*%
X106680000Y-95250000D02*
X105410000Y-93980000D01*
X117251400Y-95250000D02*
X106680000Y-95250000D01*
X119701400Y-97700000D02*
X117251400Y-95250000D01*
X122470900Y-97700000D02*
X119701400Y-97700000D01*
X123283100Y-96887800D02*
X122470900Y-97700000D01*
X123283100Y-96520000D02*
X123283100Y-96887800D01*
X124460000Y-96520000D02*
X123283100Y-96520000D01*
%TO.N,Net-(J2-Pin_35)*%
X118203100Y-93980000D02*
X107950000Y-93980000D01*
X120743100Y-96520000D02*
X118203100Y-93980000D01*
X121920000Y-96520000D02*
X120743100Y-96520000D01*
%TO.N,Net-(J2-Pin_32)*%
X106600600Y-92630600D02*
X105410000Y-91440000D01*
X122460300Y-92630600D02*
X106600600Y-92630600D01*
X123283100Y-91807800D02*
X122460300Y-92630600D01*
X123283100Y-91440000D02*
X123283100Y-91807800D01*
X124460000Y-91440000D02*
X123283100Y-91440000D01*
%TO.N,Net-(J2-Pin_28)*%
X106773100Y-87536900D02*
X105410000Y-88900000D01*
X122474100Y-87536900D02*
X106773100Y-87536900D01*
X123283100Y-86727900D02*
X122474100Y-87536900D01*
X123283100Y-86360000D02*
X123283100Y-86727900D01*
X124460000Y-86360000D02*
X123283100Y-86360000D01*
%TO.N,Net-(J2-Pin_26)*%
X106773100Y-84996900D02*
X105410000Y-86360000D01*
X122474100Y-84996900D02*
X106773100Y-84996900D01*
X123283100Y-84187900D02*
X122474100Y-84996900D01*
X123283100Y-83820000D02*
X123283100Y-84187900D01*
X124460000Y-83820000D02*
X123283100Y-83820000D01*
%TO.N,Net-(J1-Pin_20)*%
X123283100Y-78374200D02*
X123283100Y-78740000D01*
X122378900Y-77470000D02*
X123283100Y-78374200D01*
X119640600Y-77470000D02*
X122378900Y-77470000D01*
X114653100Y-72482500D02*
X119640600Y-77470000D01*
X106761600Y-72482500D02*
X114653100Y-72482500D01*
X105951900Y-73292200D02*
X106761600Y-72482500D01*
X105951900Y-73660000D02*
X105951900Y-73292200D01*
X104775000Y-73660000D02*
X105951900Y-73660000D01*
X124460000Y-78740000D02*
X123283100Y-78740000D01*
%TO.N,Net-(J1-Pin_19)*%
X124825800Y-87723100D02*
X124460000Y-87723100D01*
X125651000Y-86897900D02*
X124825800Y-87723100D01*
X125651000Y-83302100D02*
X125651000Y-86897900D01*
X124898900Y-82550000D02*
X125651000Y-83302100D01*
X117381900Y-82550000D02*
X124898900Y-82550000D01*
X108491900Y-73660000D02*
X117381900Y-82550000D01*
X107315000Y-73660000D02*
X108491900Y-73660000D01*
X124460000Y-88900000D02*
X124460000Y-87723100D01*
%TO.N,Net-(J1-Pin_18)*%
X123283100Y-75834200D02*
X123283100Y-76200000D01*
X122378900Y-74930000D02*
X123283100Y-75834200D01*
X119407300Y-74930000D02*
X122378900Y-74930000D01*
X116119200Y-71641900D02*
X119407300Y-74930000D01*
X111737200Y-71641900D02*
X116119200Y-71641900D01*
X110024700Y-69929400D02*
X111737200Y-71641900D01*
X106774700Y-69929400D02*
X110024700Y-69929400D01*
X105951900Y-70752200D02*
X106774700Y-69929400D01*
X105951900Y-71120000D02*
X105951900Y-70752200D01*
X104775000Y-71120000D02*
X105951900Y-71120000D01*
X124460000Y-76200000D02*
X123283100Y-76200000D01*
%TO.N,Net-(J1-Pin_14)*%
X123283100Y-70754200D02*
X123283100Y-71120000D01*
X122378900Y-69850000D02*
X123283100Y-70754200D01*
X119640600Y-69850000D02*
X122378900Y-69850000D01*
X114653100Y-64862500D02*
X119640600Y-69850000D01*
X106761600Y-64862500D02*
X114653100Y-64862500D01*
X105951900Y-65672200D02*
X106761600Y-64862500D01*
X105951900Y-66040000D02*
X105951900Y-65672200D01*
X104775000Y-66040000D02*
X105951900Y-66040000D01*
X124460000Y-71120000D02*
X123283100Y-71120000D01*
%TO.N,Net-(J1-Pin_13)*%
X113571900Y-71120000D02*
X121920000Y-71120000D01*
X108491900Y-66040000D02*
X113571900Y-71120000D01*
X107315000Y-66040000D02*
X108491900Y-66040000D01*
%TO.N,Net-(J1-Pin_11)*%
X115663100Y-63500000D02*
X120743100Y-68580000D01*
X107315000Y-63500000D02*
X115663100Y-63500000D01*
X121920000Y-68580000D02*
X120743100Y-68580000D01*
%TO.N,Net-(J1-Pin_10)*%
X123283100Y-65674200D02*
X123283100Y-66040000D01*
X122285800Y-64676900D02*
X123283100Y-65674200D01*
X121432500Y-64676900D02*
X122285800Y-64676900D01*
X118892500Y-62136900D02*
X121432500Y-64676900D01*
X106760900Y-62136900D02*
X118892500Y-62136900D01*
X105951900Y-61327900D02*
X106760900Y-62136900D01*
X105951900Y-60960000D02*
X105951900Y-61327900D01*
X104775000Y-60960000D02*
X105951900Y-60960000D01*
X124460000Y-66040000D02*
X123283100Y-66040000D01*
%TO.N,Net-(J1-Pin_4)*%
X114300000Y-54516900D02*
X120743100Y-60960000D01*
X106760900Y-54516900D02*
X114300000Y-54516900D01*
X105951900Y-53707900D02*
X106760900Y-54516900D01*
X105951900Y-53340000D02*
X105951900Y-53707900D01*
X104775000Y-53340000D02*
X105951900Y-53340000D01*
X121920000Y-60960000D02*
X120743100Y-60960000D01*
%TO.N,Net-(J1-Pin_3)*%
X123283100Y-58054200D02*
X123283100Y-58420000D01*
X122378900Y-57150000D02*
X123283100Y-58054200D01*
X120014300Y-57150000D02*
X122378900Y-57150000D01*
X116204300Y-53340000D02*
X120014300Y-57150000D01*
X107315000Y-53340000D02*
X116204300Y-53340000D01*
X124460000Y-58420000D02*
X123283100Y-58420000D01*
%TD*%
M02*
