%TF.GenerationSoftware,KiCad,Pcbnew,7.0.9*%
%TF.CreationDate,2023-12-24T18:40:11+00:00*%
%TF.ProjectId,GPIO2HUB75,4750494f-3248-4554-9237-352e6b696361,rev?*%
%TF.SameCoordinates,Original*%
%TF.FileFunction,Legend,Bot*%
%TF.FilePolarity,Positive*%
%FSLAX46Y46*%
G04 Gerber Fmt 4.6, Leading zero omitted, Abs format (unit mm)*
G04 Created by KiCad (PCBNEW 7.0.9) date 2023-12-24 18:40:11*
%MOMM*%
%LPD*%
G01*
G04 APERTURE LIST*
%ADD10C,0.150000*%
%ADD11C,0.120000*%
G04 APERTURE END LIST*
D10*
X110823333Y-76289819D02*
X110823333Y-77004104D01*
X110823333Y-77004104D02*
X110870952Y-77146961D01*
X110870952Y-77146961D02*
X110966190Y-77242200D01*
X110966190Y-77242200D02*
X111109047Y-77289819D01*
X111109047Y-77289819D02*
X111204285Y-77289819D01*
X110442380Y-76289819D02*
X109823333Y-76289819D01*
X109823333Y-76289819D02*
X110156666Y-76670771D01*
X110156666Y-76670771D02*
X110013809Y-76670771D01*
X110013809Y-76670771D02*
X109918571Y-76718390D01*
X109918571Y-76718390D02*
X109870952Y-76766009D01*
X109870952Y-76766009D02*
X109823333Y-76861247D01*
X109823333Y-76861247D02*
X109823333Y-77099342D01*
X109823333Y-77099342D02*
X109870952Y-77194580D01*
X109870952Y-77194580D02*
X109918571Y-77242200D01*
X109918571Y-77242200D02*
X110013809Y-77289819D01*
X110013809Y-77289819D02*
X110299523Y-77289819D01*
X110299523Y-77289819D02*
X110394761Y-77242200D01*
X110394761Y-77242200D02*
X110442380Y-77194580D01*
X123523333Y-50024819D02*
X123523333Y-50739104D01*
X123523333Y-50739104D02*
X123570952Y-50881961D01*
X123570952Y-50881961D02*
X123666190Y-50977200D01*
X123666190Y-50977200D02*
X123809047Y-51024819D01*
X123809047Y-51024819D02*
X123904285Y-51024819D01*
X123094761Y-50120057D02*
X123047142Y-50072438D01*
X123047142Y-50072438D02*
X122951904Y-50024819D01*
X122951904Y-50024819D02*
X122713809Y-50024819D01*
X122713809Y-50024819D02*
X122618571Y-50072438D01*
X122618571Y-50072438D02*
X122570952Y-50120057D01*
X122570952Y-50120057D02*
X122523333Y-50215295D01*
X122523333Y-50215295D02*
X122523333Y-50310533D01*
X122523333Y-50310533D02*
X122570952Y-50453390D01*
X122570952Y-50453390D02*
X123142380Y-51024819D01*
X123142380Y-51024819D02*
X122523333Y-51024819D01*
X110823333Y-51524819D02*
X110823333Y-52239104D01*
X110823333Y-52239104D02*
X110870952Y-52381961D01*
X110870952Y-52381961D02*
X110966190Y-52477200D01*
X110966190Y-52477200D02*
X111109047Y-52524819D01*
X111109047Y-52524819D02*
X111204285Y-52524819D01*
X109823333Y-52524819D02*
X110394761Y-52524819D01*
X110109047Y-52524819D02*
X110109047Y-51524819D01*
X110109047Y-51524819D02*
X110204285Y-51667676D01*
X110204285Y-51667676D02*
X110299523Y-51762914D01*
X110299523Y-51762914D02*
X110394761Y-51810533D01*
D11*
%TO.C,J3*%
X94560000Y-76070000D02*
X94560000Y-104270000D01*
X103680000Y-88120000D02*
X94560000Y-88120000D01*
X103680000Y-76070000D02*
X94560000Y-76070000D01*
X103680000Y-92220000D02*
X94560000Y-92220000D01*
X94560000Y-104270000D02*
X103680000Y-104270000D01*
X110300000Y-81780000D02*
X109300000Y-81280000D01*
X103680000Y-104270000D02*
X103680000Y-76070000D01*
X110300000Y-80780000D02*
X110300000Y-81780000D01*
X109300000Y-81280000D02*
X110300000Y-80780000D01*
%TO.C,J2*%
X120590000Y-54610000D02*
X120590000Y-102930000D01*
X120590000Y-52010000D02*
X120590000Y-53340000D01*
X121920000Y-52010000D02*
X120590000Y-52010000D01*
X123190000Y-54610000D02*
X120590000Y-54610000D01*
X123190000Y-52010000D02*
X123190000Y-54610000D01*
X125790000Y-102930000D02*
X120590000Y-102930000D01*
X125790000Y-52010000D02*
X123190000Y-52010000D01*
X125790000Y-52010000D02*
X125790000Y-102930000D01*
%TO.C,J1*%
X108585000Y-50800000D02*
X108585000Y-49530000D01*
X108585000Y-49530000D02*
X107315000Y-49530000D01*
X106272071Y-74040000D02*
X105817929Y-74040000D01*
X106272071Y-73280000D02*
X105817929Y-73280000D01*
X106272071Y-71500000D02*
X105817929Y-71500000D01*
X106272071Y-70740000D02*
X105817929Y-70740000D01*
X106272071Y-68960000D02*
X105817929Y-68960000D01*
X106272071Y-68200000D02*
X105817929Y-68200000D01*
X106272071Y-66420000D02*
X105817929Y-66420000D01*
X106272071Y-65660000D02*
X105817929Y-65660000D01*
X106272071Y-63880000D02*
X105817929Y-63880000D01*
X106272071Y-63120000D02*
X105817929Y-63120000D01*
X106272071Y-61340000D02*
X105817929Y-61340000D01*
X106272071Y-60580000D02*
X105817929Y-60580000D01*
X106272071Y-58800000D02*
X105817929Y-58800000D01*
X106272071Y-58040000D02*
X105817929Y-58040000D01*
X106272071Y-56260000D02*
X105817929Y-56260000D01*
X106272071Y-55500000D02*
X105817929Y-55500000D01*
X106272071Y-53720000D02*
X105817929Y-53720000D01*
X106272071Y-52960000D02*
X105817929Y-52960000D01*
X106205000Y-51180000D02*
X105817929Y-51180000D01*
X106205000Y-50420000D02*
X105817929Y-50420000D01*
X103732071Y-74040000D02*
X103335000Y-74040000D01*
X103732071Y-73280000D02*
X103335000Y-73280000D01*
X103732071Y-71500000D02*
X103335000Y-71500000D01*
X103732071Y-70740000D02*
X103335000Y-70740000D01*
X103732071Y-68960000D02*
X103335000Y-68960000D01*
X103732071Y-68200000D02*
X103335000Y-68200000D01*
X103732071Y-66420000D02*
X103335000Y-66420000D01*
X103732071Y-65660000D02*
X103335000Y-65660000D01*
X103732071Y-63880000D02*
X103335000Y-63880000D01*
X103732071Y-63120000D02*
X103335000Y-63120000D01*
X103732071Y-61340000D02*
X103335000Y-61340000D01*
X103732071Y-60580000D02*
X103335000Y-60580000D01*
X103732071Y-58800000D02*
X103335000Y-58800000D01*
X103732071Y-58040000D02*
X103335000Y-58040000D01*
X103732071Y-56260000D02*
X103335000Y-56260000D01*
X103732071Y-55500000D02*
X103335000Y-55500000D01*
X103732071Y-53720000D02*
X103335000Y-53720000D01*
X103732071Y-52960000D02*
X103335000Y-52960000D01*
X103732071Y-51180000D02*
X103335000Y-51180000D01*
X103732071Y-50420000D02*
X103335000Y-50420000D01*
X103335000Y-74990000D02*
X100675000Y-74990000D01*
X103335000Y-72390000D02*
X100675000Y-72390000D01*
X103335000Y-69850000D02*
X100675000Y-69850000D01*
X103335000Y-67310000D02*
X100675000Y-67310000D01*
X103335000Y-64770000D02*
X100675000Y-64770000D01*
X103335000Y-62230000D02*
X100675000Y-62230000D01*
X103335000Y-59690000D02*
X100675000Y-59690000D01*
X103335000Y-57150000D02*
X100675000Y-57150000D01*
X103335000Y-54610000D02*
X100675000Y-54610000D01*
X103335000Y-52070000D02*
X100675000Y-52070000D01*
X103335000Y-49470000D02*
X103335000Y-74990000D01*
X100675000Y-74990000D02*
X100675000Y-49470000D01*
X100675000Y-73280000D02*
X94675000Y-73280000D01*
X100675000Y-70740000D02*
X94675000Y-70740000D01*
X100675000Y-68200000D02*
X94675000Y-68200000D01*
X100675000Y-65660000D02*
X94675000Y-65660000D01*
X100675000Y-63120000D02*
X94675000Y-63120000D01*
X100675000Y-60580000D02*
X94675000Y-60580000D01*
X100675000Y-58040000D02*
X94675000Y-58040000D01*
X100675000Y-55500000D02*
X94675000Y-55500000D01*
X100675000Y-52960000D02*
X94675000Y-52960000D01*
X100675000Y-51080000D02*
X94675000Y-51080000D01*
X100675000Y-50960000D02*
X94675000Y-50960000D01*
X100675000Y-50840000D02*
X94675000Y-50840000D01*
X100675000Y-50720000D02*
X94675000Y-50720000D01*
X100675000Y-50600000D02*
X94675000Y-50600000D01*
X100675000Y-50480000D02*
X94675000Y-50480000D01*
X100675000Y-50420000D02*
X94675000Y-50420000D01*
X100675000Y-49470000D02*
X103335000Y-49470000D01*
X94675000Y-74040000D02*
X100675000Y-74040000D01*
X94675000Y-73280000D02*
X94675000Y-74040000D01*
X94675000Y-71500000D02*
X100675000Y-71500000D01*
X94675000Y-70740000D02*
X94675000Y-71500000D01*
X94675000Y-68960000D02*
X100675000Y-68960000D01*
X94675000Y-68200000D02*
X94675000Y-68960000D01*
X94675000Y-66420000D02*
X100675000Y-66420000D01*
X94675000Y-65660000D02*
X94675000Y-66420000D01*
X94675000Y-63880000D02*
X100675000Y-63880000D01*
X94675000Y-63120000D02*
X94675000Y-63880000D01*
X94675000Y-61340000D02*
X100675000Y-61340000D01*
X94675000Y-60580000D02*
X94675000Y-61340000D01*
X94675000Y-58800000D02*
X100675000Y-58800000D01*
X94675000Y-58040000D02*
X94675000Y-58800000D01*
X94675000Y-56260000D02*
X100675000Y-56260000D01*
X94675000Y-55500000D02*
X94675000Y-56260000D01*
X94675000Y-53720000D02*
X100675000Y-53720000D01*
X94675000Y-52960000D02*
X94675000Y-53720000D01*
X94675000Y-51180000D02*
X100675000Y-51180000D01*
X94675000Y-50420000D02*
X94675000Y-51180000D01*
%TD*%
M02*
