M48
; DRILL file {KiCad 7.0.9} date Sun Dec 24 18:40:09 2023
; FORMAT={-:-/ absolute / inch / decimal}
; #@! TF.CreationDate,2023-12-24T18:40:09+00:00
; #@! TF.GenerationSoftware,Kicad,Pcbnew,7.0.9
; #@! TF.FileFunction,Plated,1,2,PTH
FMAT,2
INCH
; #@! TA.AperFunction,Plated,PTH,ComponentDrill
T1C0.0394
%
G90
G05
T1
X4.125Y-2.0
X4.125Y-2.1
X4.125Y-2.2
X4.125Y-2.3
X4.125Y-2.4
X4.125Y-2.5
X4.125Y-2.6
X4.125Y-2.7
X4.125Y-2.8
X4.125Y-2.9
X4.15Y-3.2
X4.15Y-3.3
X4.15Y-3.4
X4.15Y-3.5
X4.15Y-3.6
X4.15Y-3.7
X4.15Y-3.8
X4.15Y-3.9
X4.225Y-2.0
X4.225Y-2.1
X4.225Y-2.2
X4.225Y-2.3
X4.225Y-2.4
X4.225Y-2.5
X4.225Y-2.6
X4.225Y-2.7
X4.225Y-2.8
X4.225Y-2.9
X4.25Y-3.2
X4.25Y-3.3
X4.25Y-3.4
X4.25Y-3.5
X4.25Y-3.6
X4.25Y-3.7
X4.25Y-3.8
X4.25Y-3.9
X4.8Y-2.1
X4.8Y-2.2
X4.8Y-2.3
X4.8Y-2.4
X4.8Y-2.5
X4.8Y-2.6
X4.8Y-2.7
X4.8Y-2.8
X4.8Y-2.9
X4.8Y-3.0
X4.8Y-3.1
X4.8Y-3.2
X4.8Y-3.3
X4.8Y-3.4
X4.8Y-3.5
X4.8Y-3.6
X4.8Y-3.7
X4.8Y-3.8
X4.8Y-3.9
X4.8Y-4.0
X4.9Y-2.1
X4.9Y-2.2
X4.9Y-2.3
X4.9Y-2.4
X4.9Y-2.5
X4.9Y-2.6
X4.9Y-2.7
X4.9Y-2.8
X4.9Y-2.9
X4.9Y-3.0
X4.9Y-3.1
X4.9Y-3.2
X4.9Y-3.3
X4.9Y-3.4
X4.9Y-3.5
X4.9Y-3.6
X4.9Y-3.7
X4.9Y-3.8
X4.9Y-3.9
X4.9Y-4.0
T0
M30
